<mxfile host="65bd71144e">
    <diagram id="R2lEEEUBdFMjLlhIrx00" name="Page-1">
        <mxGraphModel dx="1562" dy="1139" grid="1" gridSize="10" guides="1" tooltips="1" connect="1" arrows="1" fold="1" page="1" pageScale="1" pageWidth="850" pageHeight="1100" math="0" shadow="0" extFonts="Permanent Marker^https://fonts.googleapis.com/css?family=Permanent+Marker">
            <root>
                <mxCell id="0"/>
                <mxCell id="1" parent="0"/>
                <mxCell id="52" value="Result" style="whiteSpace=wrap;html=1;align=center;" vertex="1" parent="1">
                    <mxGeometry x="170" y="460" width="100" height="40" as="geometry"/>
                </mxCell>
                <mxCell id="53" value="Test" style="whiteSpace=wrap;html=1;align=center;" vertex="1" parent="1">
                    <mxGeometry x="480" y="460" width="100" height="40" as="geometry"/>
                </mxCell>
                <mxCell id="54" value="Student" style="whiteSpace=wrap;html=1;align=center;" vertex="1" parent="1">
                    <mxGeometry x="170" y="640" width="100" height="40" as="geometry"/>
                </mxCell>
                <mxCell id="56" value="Instructor" style="whiteSpace=wrap;html=1;align=center;" vertex="1" parent="1">
                    <mxGeometry x="480" y="820" width="100" height="40" as="geometry"/>
                </mxCell>
                <mxCell id="57" value="Course" style="whiteSpace=wrap;html=1;align=center;" vertex="1" parent="1">
                    <mxGeometry x="480" y="640" width="100" height="40" as="geometry"/>
                </mxCell>
                <mxCell id="58" value="" style="endArrow=none;html=1;rounded=0;" edge="1" parent="1" source="60" target="56">
                    <mxGeometry relative="1" as="geometry">
                        <mxPoint x="510" y="760" as="sourcePoint"/>
                        <mxPoint x="580" y="720" as="targetPoint"/>
                    </mxGeometry>
                </mxCell>
                <mxCell id="59" value="N" style="edgeLabel;html=1;align=center;verticalAlign=middle;resizable=0;points=[];" connectable="0" vertex="1" parent="58">
                    <mxGeometry x="-0.12" relative="1" as="geometry">
                        <mxPoint as="offset"/>
                    </mxGeometry>
                </mxCell>
                <mxCell id="60" value="is taught by" style="shape=rhombus;perimeter=rhombusPerimeter;whiteSpace=wrap;html=1;align=center;" vertex="1" parent="1">
                    <mxGeometry x="470" y="720" width="120" height="60" as="geometry"/>
                </mxCell>
                <mxCell id="61" value="1" style="endArrow=none;html=1;rounded=0;" edge="1" parent="1" source="60" target="57">
                    <mxGeometry relative="1" as="geometry">
                        <mxPoint x="700" y="350" as="sourcePoint"/>
                        <mxPoint x="580" y="720" as="targetPoint"/>
                    </mxGeometry>
                </mxCell>
                <mxCell id="62" value="is given by" style="shape=rhombus;perimeter=rhombusPerimeter;whiteSpace=wrap;html=1;align=center;" vertex="1" parent="1">
                    <mxGeometry x="160" y="540" width="120" height="60" as="geometry"/>
                </mxCell>
                <mxCell id="63" value=" is given for" style="shape=rhombus;perimeter=rhombusPerimeter;whiteSpace=wrap;html=1;align=center;" vertex="1" parent="1">
                    <mxGeometry x="470" y="540" width="120" height="60" as="geometry"/>
                </mxCell>
                <mxCell id="64" value="is given for" style="shape=rhombus;perimeter=rhombusPerimeter;whiteSpace=wrap;html=1;align=center;" vertex="1" parent="1">
                    <mxGeometry x="320" y="450" width="120" height="60" as="geometry"/>
                </mxCell>
                <mxCell id="66" value="N" style="endArrow=none;html=1;rounded=0;" edge="1" parent="1" source="57" target="63">
                    <mxGeometry relative="1" as="geometry">
                        <mxPoint x="440" y="720" as="sourcePoint"/>
                        <mxPoint x="600" y="720" as="targetPoint"/>
                    </mxGeometry>
                </mxCell>
                <mxCell id="68" value="1" style="endArrow=none;html=1;rounded=0;exitX=0.5;exitY=1;exitDx=0;exitDy=0;" edge="1" parent="1" source="53" target="63">
                    <mxGeometry relative="1" as="geometry">
                        <mxPoint x="440" y="720" as="sourcePoint"/>
                        <mxPoint x="600" y="720" as="targetPoint"/>
                    </mxGeometry>
                </mxCell>
                <mxCell id="70" value="" style="endArrow=none;html=1;rounded=0;" edge="1" parent="1" source="52" target="64">
                    <mxGeometry relative="1" as="geometry">
                        <mxPoint x="420" y="1000" as="sourcePoint"/>
                        <mxPoint x="580" y="1000" as="targetPoint"/>
                    </mxGeometry>
                </mxCell>
                <mxCell id="71" value="1" style="edgeLabel;html=1;align=center;verticalAlign=middle;resizable=0;points=[];" vertex="1" connectable="0" parent="70">
                    <mxGeometry x="-0.0222" y="1" relative="1" as="geometry">
                        <mxPoint as="offset"/>
                    </mxGeometry>
                </mxCell>
                <mxCell id="72" value="N" style="endArrow=none;html=1;rounded=0;" edge="1" parent="1" source="64" target="53">
                    <mxGeometry relative="1" as="geometry">
                        <mxPoint x="440" y="720" as="sourcePoint"/>
                        <mxPoint x="220" y="310" as="targetPoint"/>
                    </mxGeometry>
                </mxCell>
                <mxCell id="73" value="" style="endArrow=none;html=1;rounded=0;exitX=0.5;exitY=1;exitDx=0;exitDy=0;" edge="1" parent="1" source="52" target="62">
                    <mxGeometry relative="1" as="geometry">
                        <mxPoint x="420" y="900" as="sourcePoint"/>
                        <mxPoint x="580" y="900" as="targetPoint"/>
                    </mxGeometry>
                </mxCell>
                <mxCell id="74" value="1" style="edgeLabel;html=1;align=center;verticalAlign=middle;resizable=0;points=[];" vertex="1" connectable="0" parent="73">
                    <mxGeometry x="-0.2333" relative="1" as="geometry">
                        <mxPoint as="offset"/>
                    </mxGeometry>
                </mxCell>
                <mxCell id="75" value="" style="endArrow=none;html=1;rounded=0;entryX=0.5;entryY=0;entryDx=0;entryDy=0;exitX=0.5;exitY=1;exitDx=0;exitDy=0;" edge="1" parent="1" source="62" target="54">
                    <mxGeometry relative="1" as="geometry">
                        <mxPoint x="200" y="790" as="sourcePoint"/>
                        <mxPoint x="360" y="790" as="targetPoint"/>
                    </mxGeometry>
                </mxCell>
                <mxCell id="76" value="N" style="edgeLabel;html=1;align=center;verticalAlign=middle;resizable=0;points=[];" vertex="1" connectable="0" parent="75">
                    <mxGeometry x="0.2667" y="1" relative="1" as="geometry">
                        <mxPoint as="offset"/>
                    </mxGeometry>
                </mxCell>
            </root>
        </mxGraphModel>
    </diagram>
</mxfile>